# xmcd
#
# Track frame offsets: 
#        150
#        15417
#        27797
#        40700
#        53764
#        71705
#        92612
#        103742
#        114012
#        130550
#        145595
#        159080
#        171065
#        186927
#        201595
#        211120
#
# Disc length: 3082 seconds
#
# Revision: 0
# Processed by: cddbd v1.5.2PL0 Copyright (c) Steve Scherf et al.
# Submitted via: ExactAudioCopy v0.99pb5
#
DISCID=c50c0810
DTITLE=Paul and Lowell Larson - A Time to Sing
DYEAR=1999
DGENRE=country
TTITLE0=Four Strong Winds
TTITLE1=Back in the Saddle Again
TTITLE2=Consider the Lilies
TTITLE3=Mansion Over the Hill
TTITLE4=A Time to Sing
TTITLE5=I'd Like to Be in Texas for the Roundup in the Spring
TTITLE6=Cattle Call
TTITLE7=Roll Along Prairie Moon
TTITLE8=Ridin' Down the Canyon
TTITLE9=When the Works All Done thi Fall
TTITLE10=Man of Galilee
TTITLE11=When it's Roundup Time in Heaven
TTITLE12=Cowboy Pride
TTITLE13=When the Roses Bloom in Spring
TTITLE14=When the Bloom is on the Sage
TTITLE15=Prairie Anthem
EXTD=
EXTT0=
EXTT1=
EXTT2=
EXTT3=
EXTT4=
EXTT5=
EXTT6=
EXTT7=
EXTT8=
EXTT9=
EXTT10=
EXTT11=
EXTT12=
EXTT13=
EXTT14=
EXTT15=
PLAYORDER=
